<svg width="14" height="14" viewBox="0 0 14 14" fill="none" xmlns="http://www.w3.org/2000/svg">
<path fill-rule="evenodd" clip-rule="evenodd" d="M14.0005 14H10.9572V9.01679C10.9572 7.71244 10.4812 6.822 9.43433 6.822C8.63363 6.822 8.18834 7.42289 7.98108 8.00199C7.90336 8.20985 7.9155 8.4994 7.9155 8.78896V14H4.90052C4.90052 14 4.93938 5.17274 4.90052 4.37034H7.9155V5.88164C8.09362 5.22084 9.05705 4.27776 10.5945 4.27776C12.5019 4.27776 14.0005 5.66289 14.0005 8.64554V14ZM1.7413 3.11111H1.72043C0.67669 3.11111 0 2.42567 0 1.55682C0 0.671074 0.696695 0 1.76131 0C2.82505 0 3.47913 0.669383 3.5 1.55429C3.5 2.42313 2.82505 3.11111 1.7413 3.11111ZM0.349479 4.66668H3.14948V14H0.349479V4.66668Z" fill="#151515"/>
</svg>
